<svg fill="currentColor" version="1.1" id="Layer_1"
	xmlns="http://www.w3.org/2000/svg"
	xmlns:xlink="http://www.w3.org/1999/xlink" x="0px" y="0px" width="100%" viewBox="0 0 368 320" enable-background="new 0 0 368 320" xml:space="preserve">
	<path opacity="1.000000" stroke="none" d="
M256.373260,137.030075 
	C255.249802,134.178024 255.964310,131.787567 256.491394,129.326355 
	C257.067505,126.636246 255.998932,124.251831 253.062775,124.555603 
	C248.904526,124.985802 245.796860,124.474869 246.051270,119.556328 
	C246.328262,114.201859 251.004868,110.441246 255.687988,111.312790 
	C256.166168,111.401779 256.637054,111.529991 257.352600,111.695976 
	C257.606323,110.077377 258.713318,107.819916 256.063507,107.928879 
	C249.625427,108.193611 250.030426,104.296265 250.570984,100.003159 
	C250.693665,99.028778 250.589020,98.025772 250.195526,96.917671 
	C247.053055,102.063850 246.258041,107.965485 245.349594,113.778099 
	C244.936325,116.422432 244.707260,119.039902 243.464172,121.476257 
	C242.485626,123.394157 241.215607,124.982246 238.903397,124.644554 
	C236.657135,124.316475 235.649597,122.395645 235.108765,120.433128 
	C234.231827,117.250809 235.110428,114.121803 235.988602,111.094452 
	C236.850891,108.121803 236.735809,105.697060 234.206055,103.451881 
	C232.242310,101.709053 231.499390,99.204109 232.324860,96.582893 
	C234.335083,90.199623 236.934647,84.082741 241.244919,78.859818 
	C242.765472,77.017288 244.578018,75.178291 247.181671,76.790924 
	C249.937454,78.497780 250.195236,81.071014 248.552750,83.725998 
	C246.268112,87.418961 247.833893,89.108589 251.304398,90.041679 
	C253.075714,88.650475 252.513611,86.804726 252.907303,85.246353 
	C253.486786,82.952560 254.760056,81.074409 257.277588,81.222786 
	C259.743835,81.368134 261.022552,83.252693 261.236115,85.651726 
	C261.696472,90.823524 261.379639,95.920807 259.790405,101.013817 
	C260.680054,99.073166 261.582855,97.138397 262.455597,95.190147 
	C263.278961,93.352051 264.619659,92.053383 266.678833,92.357521 
	C269.031952,92.705078 269.774048,94.623322 270.004578,96.757607 
	C270.498413,101.329292 267.723511,105.425468 267.972046,110.203766 
	C272.414917,111.398407 276.110168,111.413025 277.950500,106.136490 
	C278.578674,104.335419 280.272949,103.020081 282.255432,103.327232 
	C284.413940,103.661659 284.206696,105.777016 284.200439,107.376770 
	C284.192474,109.403915 284.913605,110.806808 286.620758,111.948975 
	C297.752838,119.396683 297.171600,141.280655 284.625397,150.886261 
	C283.108398,152.047714 281.060730,152.761383 279.431885,151.874023 
	C271.498230,147.551926 262.813446,144.372009 256.373260,137.030075 
z"/>
	<path opacity="1.000000" stroke="none" d="
M45.240814,135.170456 
	C44.690262,130.330917 43.695187,125.831863 44.005699,121.424797 
	C44.857079,109.341263 55.841290,101.996689 67.715294,105.272606 
	C70.340614,105.996910 71.493378,104.892494 72.138123,102.704071 
	C73.038414,99.648193 74.331047,96.793121 76.338585,94.317642 
	C77.536423,92.840591 79.006660,91.645050 81.072601,92.657112 
	C83.283691,93.740265 83.419472,95.729874 82.913506,97.793633 
	C82.599487,99.074463 81.791756,100.254242 81.591553,101.539490 
	C80.761398,106.868820 78.377197,112.498550 84.367172,116.663025 
	C85.222572,117.257751 85.643967,118.586861 86.081444,119.651978 
	C87.410934,122.888863 88.320099,126.383987 84.606781,128.483963 
	C80.802803,130.635239 78.952766,127.417755 76.979195,124.400452 
	C75.548828,133.181793 68.387985,134.875809 61.936588,137.979767 
	C62.004929,139.104156 63.774235,139.064453 64.444229,140.112259 
	C65.378220,141.572891 66.162460,142.968521 65.402634,144.736832 
	C64.659508,146.466293 63.233707,147.096802 61.463722,147.320297 
	C56.305454,147.971634 50.130863,144.508148 47.106449,139.149063 
	C46.455315,137.995285 45.959370,136.753922 45.240814,135.170456 
z"/>
	<path opacity="1.000000" stroke="none" d="
M171.696930,259.353394 
	C160.268723,258.575531 149.516998,256.435272 138.747635,254.316422 
	C130.940872,252.780487 123.017097,251.843094 115.201988,250.344238 
	C111.907928,249.712479 107.188683,249.152832 108.158859,244.439987 
	C109.049278,240.114594 113.523430,239.557220 117.220345,240.624420 
	C131.478210,244.740250 146.255905,246.055527 160.797363,248.272964 
	C177.811234,250.867386 195.028580,253.545273 212.421982,251.680405 
	C214.226379,251.486938 215.981216,250.867340 217.774673,250.528168 
	C220.970978,249.923721 223.490952,250.907669 224.427887,254.175613 
	C225.358643,257.421997 222.847015,258.865540 220.476181,259.559021 
	C210.293350,262.537659 199.745056,263.648743 189.406662,261.630890 
	C183.640610,260.505463 177.791656,260.876953 171.696930,259.353394 
z"/>
	<path opacity="1.000000" stroke="none" d="
M310.977661,140.875977 
	C317.786743,144.176682 323.698303,148.194443 329.015259,153.039230 
	C334.211761,157.774261 334.329285,160.295731 329.436310,165.284698 
	C328.014893,166.733978 328.417389,168.313293 328.080719,169.873123 
	C327.264252,173.655914 324.544891,175.007858 321.523529,172.919144 
	C317.970917,170.463089 314.548981,167.802383 311.206024,165.064743 
	C309.329834,163.528259 307.835480,161.430008 309.385437,158.974060 
	C310.951935,156.491928 313.348572,157.121414 315.633240,158.095886 
	C317.298706,158.806213 318.996307,159.441147 321.392029,160.392654 
	C320.688354,157.837891 319.111237,157.038727 317.754089,156.046082 
	C312.523682,152.220444 307.255096,148.444717 302.091522,144.530624 
	C296.348022,140.176956 295.986755,130.710938 301.174866,125.892746 
	C302.617126,124.553337 303.738373,122.868332 305.191620,121.119568 
	C304.414948,118.753456 301.889496,117.730400 300.397797,115.839188 
	C298.829254,113.850471 297.985535,111.606445 299.666168,109.446953 
	C301.548431,107.028419 304.099487,107.528282 306.436859,108.858177 
	C312.077698,112.067635 312.902039,117.189293 308.466095,121.621994 
	C312.501556,123.949684 316.497162,126.286758 320.526733,128.563797 
	C322.297516,129.564438 323.859680,130.778198 325.011078,132.457626 
	C326.451691,134.558853 326.923889,136.917816 325.228241,138.930801 
	C323.532166,140.944244 321.365662,140.146606 319.319733,139.072327 
	C314.835602,136.717819 311.043030,133.044693 305.222107,131.605377 
	C306.516571,135.435333 306.626373,139.158813 310.977661,140.875977 
z"/>
	<path opacity="1.000000" stroke="none" d="
M50.962059,211.999390 
	C49.359051,214.238785 47.484943,214.765594 45.536747,213.516724 
	C43.212811,212.026993 42.199512,209.559601 43.056465,206.987732 
	C44.076603,203.926102 44.476105,201.457047 41.698120,198.964401 
	C40.073261,197.506424 40.685162,195.199112 41.685478,193.358963 
	C43.178509,190.612411 44.794331,187.932602 46.337383,185.259949 
	C39.899166,179.977707 39.831341,179.934113 44.180283,173.168167 
	C45.485035,171.138260 45.355778,169.608627 43.906139,167.789230 
	C42.060520,165.472839 42.504215,163.125061 44.411201,161.020279 
	C48.051014,157.002930 52.456059,154.054871 57.576809,152.353210 
	C60.160683,151.494583 63.095852,151.294937 64.632256,154.217972 
	C66.121162,157.050598 64.055611,158.877548 62.036770,160.480377 
	C61.517971,160.892288 60.860638,161.129715 60.336456,161.410110 
	C66.232185,170.567474 55.237904,172.064148 53.994591,177.782211 
	C54.726055,178.534927 55.521530,177.905304 56.285290,177.869446 
	C58.591797,177.761185 61.153271,177.163605 62.330402,179.975723 
	C63.430355,182.603485 61.980751,184.687958 59.981918,185.968918 
	C56.852879,187.974213 58.467987,190.968506 57.752018,193.446716 
	C55.963593,199.637070 53.410099,205.606415 50.962059,211.999390 
z"/>
	<path opacity="1.000000" stroke="none" d="
M157.638580,86.542709 
	C154.712769,92.411919 153.750092,92.955338 147.502579,92.167229 
	C146.621750,100.378914 137.613358,105.350250 138.807907,114.711014 
	C139.101364,117.010651 137.223282,119.171707 134.371811,119.153343 
	C131.551086,119.135185 130.339905,117.141006 129.796188,114.685074 
	C128.934204,110.791618 129.624802,106.898811 131.161926,103.446327 
	C135.131668,94.530037 139.467194,85.772461 143.817322,77.031471 
	C145.858414,72.930153 148.430878,69.482391 153.941391,72.168129 
	C155.872955,73.109550 156.904175,71.175148 158.189697,70.268517 
	C159.979843,69.005974 161.825607,68.349747 163.612320,70.023338 
	C165.173203,71.485390 164.163528,73.023758 163.408875,74.546593 
	C161.494080,78.410492 159.663147,82.315948 157.638580,86.542709 
z"/>
	<path opacity="1.000000" stroke="none" d="
M115.674835,85.567825 
	C121.727142,83.568611 123.495338,78.477570 125.848824,73.752853 
	C127.414963,70.608757 128.965454,65.950996 133.515060,67.723686 
	C138.468552,69.653740 135.842514,73.720314 134.396286,77.031090 
	C131.148895,84.465164 127.923653,91.909134 124.625252,99.320526 
	C123.874687,101.007034 122.770035,102.884834 120.924561,103.123642 
	C115.806900,103.785889 114.930626,107.637779 113.912964,111.543228 
	C113.538002,112.982193 113.298721,114.538574 112.559624,115.780853 
	C111.516945,117.533386 109.986000,118.900162 107.620583,118.252831 
	C105.550941,117.686455 104.629181,116.117287 104.616257,114.157326 
	C104.601021,111.845505 104.472374,109.396149 105.147461,107.242996 
	C107.533707,99.632118 110.606842,92.297981 115.674835,85.567825 
z"/>
	<path opacity="1.000000" stroke="none" d="
M117.524490,73.176025 
	C115.379265,78.281044 113.354004,83.007790 111.415314,87.769791 
	C110.602226,89.766968 109.507332,91.364868 107.121468,91.235909 
	C103.972595,91.065712 102.880783,92.890938 102.035133,95.571533 
	C100.435883,100.640968 98.880730,105.691673 98.068810,110.969070 
	C97.681938,113.483665 96.745964,116.221725 93.564529,115.973289 
	C90.278862,115.716721 88.665947,113.346497 88.770477,110.074844 
	C89.086632,100.179710 91.526863,90.177361 98.261559,83.507042 
	C102.856926,78.955612 106.054482,73.657547 110.280464,69.051460 
	C111.819969,67.373497 113.708450,66.200035 116.037369,67.254623 
	C118.582428,68.407089 118.329338,70.601433 117.524490,73.176025 
z"/>
	<path opacity="1.000000" stroke="none" d="
M162.769501,215.658936 
	C156.960678,219.422485 155.702942,213.229080 152.570801,211.368637 
	C149.977036,212.435104 149.015457,214.948624 147.209976,216.588104 
	C145.230850,218.385315 142.973083,219.725769 140.536606,217.960526 
	C138.068100,216.172134 138.381638,213.377640 139.952240,211.263962 
	C142.806442,207.422836 144.456100,203.871567 143.457687,198.599808 
	C142.551315,193.814117 149.456024,190.095276 156.762650,190.538605 
	C165.594910,191.074539 168.497879,196.502106 163.664246,203.806686 
	C162.374466,205.755814 162.211990,207.337997 163.187775,209.308548 
	C164.187668,211.327805 164.630768,213.398453 162.769501,215.658936 
z"/>
	<path opacity="1.000000" stroke="none" d="
M212.251190,95.351929 
	C214.370209,101.843414 211.245178,107.358086 209.952316,113.086258 
	C209.558105,114.832771 207.559128,115.939430 205.521912,115.562012 
	C203.329208,115.155792 201.899261,113.630951 201.882568,111.394157 
	C201.853821,107.546265 202.058914,103.909378 197.648071,101.817329 
	C196.156937,101.110085 195.744598,98.661354 196.055084,96.803795 
	C197.613953,87.477547 200.174576,78.572716 207.759613,72.113663 
	C209.491058,70.639252 211.490311,68.610481 213.883408,70.584244 
	C215.917145,72.261612 214.831009,74.398064 213.944595,76.502319 
	C211.451233,82.421295 208.002487,87.944687 206.210754,94.153755 
	C208.170822,95.745628 210.392166,93.273766 212.251190,95.351929 
z"/>
	<path opacity="1.000000" stroke="none" d="
M173.432419,77.467140 
	C171.772263,81.852882 168.169250,85.516037 172.122330,90.320793 
	C173.695694,92.233109 171.598267,94.776810 171.261810,97.038368 
	C170.383942,102.939224 169.321991,108.815872 168.187805,114.673988 
	C167.668228,117.357674 166.697830,120.238678 163.335907,120.050766 
	C159.808334,119.853592 159.003052,116.872536 158.716080,113.913467 
	C158.505417,111.741203 158.917267,109.620056 159.451630,107.495552 
	C160.421341,103.640198 161.613297,99.752197 158.536591,96.133636 
	C157.984344,95.484154 157.796326,94.144531 158.021744,93.274200 
	C159.912140,85.975594 162.384232,78.924995 168.160507,73.645409 
	C169.497589,72.423302 171.146515,71.142334 173.094574,72.241722 
	C175.382599,73.532982 173.927185,75.433418 173.432419,77.467140 
z"/>
	<path opacity="1.000000" stroke="none" d="
M307.170227,172.116089 
	C313.547974,172.879578 318.974426,175.366974 324.347931,177.915588 
	C327.899384,179.600006 330.697571,182.196564 331.881744,186.103546 
	C332.757690,188.993652 331.955261,191.547363 329.205658,192.848907 
	C326.639801,194.063461 325.095734,192.361969 323.482971,190.340271 
	C318.840179,184.520294 313.109406,181.596786 305.220795,180.647751 
	C298.929565,179.890900 292.681122,175.904480 287.700256,171.151260 
	C286.722168,170.217896 286.547241,168.739807 287.378693,167.456268 
	C288.414215,165.857758 290.053589,165.511917 291.765900,165.761017 
	C297.286621,166.564163 302.223572,168.855453 307.170227,172.116089 
z"/>
	<path opacity="1.000000" stroke="none" d="
M260.330780,236.014038 
	C265.507324,234.621475 270.284882,233.308517 275.197693,232.420593 
	C279.628876,231.619751 283.561157,229.585571 286.663696,225.972946 
	C288.775879,223.513474 291.796082,221.445175 294.814880,224.427002 
	C297.858826,227.433685 295.449738,230.023911 293.363220,232.592361 
	C286.570801,240.953781 276.652069,242.051147 267.142944,244.138351 
	C266.012299,244.386536 264.805511,244.349823 263.712128,244.693619 
	C260.688354,245.644363 257.811005,245.445343 256.435333,242.371597 
	C255.010666,239.188370 257.736023,237.647324 260.330780,236.014038 
z"/>
	<path opacity="1.000000" stroke="none" d="
M181.278763,165.546448 
	C186.583176,160.740982 193.930328,159.564499 198.405853,162.515671 
	C202.349121,165.115936 203.817261,170.162811 201.798538,174.178421 
	C199.111267,179.523895 192.451218,182.848373 187.829193,181.151474 
	C181.468170,178.816116 178.540817,172.213562 181.278763,165.546448 
z"/>
	<path opacity="1.000000" stroke="none" d="
M95.277649,246.938690 
	C95.355301,252.573730 92.891998,256.624786 89.170731,259.867859 
	C87.213722,261.573334 84.768890,263.158478 81.922577,261.693756 
	C79.135620,260.259583 77.312881,258.029266 76.947746,254.749405 
	C76.338730,249.278915 80.289337,241.384171 85.077850,238.706131 
	C89.808350,236.060577 96.866982,239.324875 95.277649,246.938690 
z"/>
	<path opacity="1.000000" stroke="none" d="
M306.951813,198.926926 
	C306.094971,196.175430 303.577057,195.408569 301.360504,194.337494 
	C299.870941,193.617676 298.177582,193.282852 296.760895,192.457397 
	C294.520844,191.152176 291.424957,189.927200 292.622864,186.576874 
	C293.686462,183.602310 296.559845,184.216309 299.092987,184.590958 
	C305.697083,185.567703 311.644440,187.478989 315.460114,193.679321 
	C316.619812,195.563812 318.856079,196.799576 320.643036,198.279648 
	C321.919373,199.336792 323.386353,200.186325 324.558594,201.341309 
	C326.450439,203.205322 327.779755,205.679199 326.023132,208.009216 
	C324.064178,210.607635 321.327728,209.708633 318.868408,208.231461 
	C315.150757,205.998505 312.924133,201.889206 308.228546,199.961395 
	C307.447449,199.443314 307.199615,199.185120 306.951813,198.926926 
z"/>
	<path opacity="1.000000" stroke="none" d="
M122.552719,180.937836 
	C115.314430,180.688232 111.975571,177.844467 111.352654,171.823792 
	C110.772232,166.213913 113.074402,162.769669 118.333916,161.379181 
	C124.469734,159.757050 129.208176,161.676270 131.329559,166.642838 
	C133.583847,171.920563 130.114441,177.794998 122.552719,180.937836 
z"/>
	<path opacity="1.000000" stroke="none" d="
M190.064697,94.117188 
	C185.505020,97.282211 181.859329,95.782013 182.005920,90.566238 
	C182.221603,82.891319 184.282547,75.534210 189.202606,69.335114 
	C190.998947,67.071800 193.422577,66.088402 196.275375,67.164879 
	C199.097885,68.229919 197.496078,70.791084 198.080597,72.576698 
	C199.796219,77.817612 199.392059,82.725494 195.503860,86.292946 
	C193.051804,88.542732 191.430405,90.877434 190.064697,94.117188 
z"/>
	<path opacity="1.000000" stroke="none" d="
M67.947739,217.037781 
	C72.234901,220.984970 75.881775,225.101685 81.223167,227.173279 
	C83.206154,227.942337 84.852287,229.807922 84.230881,232.356903 
	C83.537094,235.202835 81.036011,235.557510 78.688484,235.617035 
	C76.133415,235.681824 73.848541,234.681641 71.770813,233.141083 
	C66.941574,229.560318 62.513451,225.549820 58.506519,221.072388 
	C56.142666,218.430939 54.107723,215.395340 57.294029,212.358032 
	C60.833611,208.983963 63.221790,212.410568 65.604057,214.635330 
	C66.332657,215.315750 66.992081,216.070221 67.947739,217.037781 
z"/>
	<path opacity="1.000000" stroke="none" d="
M243.636719,247.700180 
	C245.237991,250.082367 245.250717,252.415848 245.370148,254.758194 
	C245.579422,258.862885 244.650986,262.081360 239.865875,262.704315 
	C235.079773,263.327332 230.698776,260.857391 229.894897,256.513611 
	C229.384277,253.754395 227.466080,251.169876 228.258621,248.296738 
	C229.207764,244.855865 230.776108,241.391510 234.845505,240.989395 
	C239.321945,240.547043 241.649460,243.764847 243.636719,247.700180 
z"/>
	<path opacity="1.000000" stroke="none" d="
M224.725266,95.686813 
	C219.338272,96.801300 217.973236,95.752747 217.746429,90.939819 
	C217.525513,86.251564 219.234955,82.034264 221.365814,78.117828 
	C222.955826,75.195450 225.676147,73.808716 228.700684,76.849365 
	C229.290619,77.442444 229.720184,77.899338 230.761902,77.784393 
	C236.054611,77.200417 236.206390,77.415741 234.321609,82.507439 
	C233.809509,83.890869 233.357361,85.632927 232.293182,86.412910 
	C229.012619,88.817429 227.007156,92.107780 224.725266,95.686813 
z"/>
	<path opacity="1.000000" stroke="none" d="
M292.464844,148.169785 
	C298.054657,150.495880 301.966644,154.511993 304.960541,159.306747 
	C305.938538,160.873001 305.677338,163.262680 304.087402,164.875183 
	C302.423401,166.562805 300.447815,166.169647 298.531860,165.377167 
	C294.861786,163.859131 291.155060,162.409836 287.576965,160.695358 
	C284.449890,159.196991 283.869263,155.952377 286.630005,153.939713 
	C288.845978,152.324188 290.124786,150.013687 292.464844,148.169785 
z"/>
	<path opacity="1.000000" stroke="none" d="
M179.142151,120.088684 
	C177.947784,113.136673 179.209473,107.135979 183.355789,101.834915 
	C184.659668,100.167900 186.181671,98.803703 188.436111,99.660217 
	C190.675308,100.510948 190.423676,102.659340 190.108673,104.393074 
	C189.217621,109.297195 188.331894,114.228729 186.960342,119.010712 
	C185.870605,122.810074 182.925186,123.208435 179.142151,120.088684 
z"/>
	<path opacity="1.000000" stroke="none" d="
M294.515167,209.669495 
	C296.611725,207.071503 298.589996,208.053024 300.355225,209.409546 
	C303.374359,211.729675 306.538147,213.735474 309.964172,215.432266 
	C312.514832,216.695526 314.143250,219.068222 312.764069,221.973511 
	C311.455475,224.730118 308.856934,224.467056 306.284119,223.716736 
	C299.231140,221.659821 294.018463,215.725677 294.515167,209.669495 
z"/>
	<path opacity="1.000000" stroke="none" d="
M220.497986,104.773659 
	C220.996017,102.293022 222.229355,100.681213 224.004272,99.730972 
	C226.198608,98.556183 228.663132,98.724976 228.943222,101.628349 
	C229.383453,106.191696 230.027908,110.912094 228.152252,115.346375 
	C227.235657,117.513351 225.867996,119.608582 222.984802,119.076591 
	C220.239822,118.570091 219.476364,116.170135 219.033249,113.914497 
	C218.441147,110.900551 219.767166,108.058006 220.497986,104.773659 
z"/>
	<path opacity="1.000000" stroke="none" d="
M306.569183,198.922852 
	C307.199615,199.185120 307.447449,199.443314 307.898071,199.878265 
	C309.742828,202.631226 314.158936,204.621201 310.983032,208.393356 
	C307.915558,212.036774 304.677612,209.368240 301.720581,207.476349 
	C299.210724,205.870514 296.386383,204.712692 294.410461,202.349197 
	C293.424164,201.169449 292.530396,199.918900 293.316467,198.295868 
	C294.079620,196.720139 295.580658,196.544266 297.122650,196.439621 
	C300.440155,196.214539 302.972137,198.805237 306.569183,198.922852 
z"/>
</svg>